<?xml version="1.0" encoding="UTF-8"?>
<svg id="Layer_2" data-name="Layer 2" xmlns="http://www.w3.org/2000/svg" viewBox="0 0 2000 2000">
  <defs>
    <style>
      .cls-1 {
        fill: #ffdf6e;
      }

      .cls-1, .cls-2, .cls-3, .cls-4, .cls-5 {
        stroke-width: 0px;
      }

      .cls-2 {
        fill: #fff5db;
      }

      .cls-3 {
        fill: #fff;
      }

      .cls-4 {
        fill: #ffc900;
      }

      .cls-5 {
        fill: #fda700;
      }
    </style>
  </defs>
  <g id="Layer_1-2" data-name="Layer 1">
    <g>
      <rect class="cls-2" x="0" y="0" width="2000" height="2000" rx="296.87" ry="296.87"/>
      <g>
        <ellipse class="cls-1" cx="477.68" cy="639.99" rx="207.09" ry="207.13" transform="translate(-315.54 732.53) rotate(-59.92)"/>
        <ellipse class="cls-4" cx="1000" cy="639.99" rx="207.09" ry="207.13" transform="translate(-54.47 1185.59) rotate(-59.98)"/>
        <ellipse class="cls-5" cx="1522.32" cy="639.99" rx="207.09" ry="207.13" transform="translate(207.32 1638.9) rotate(-60.02)"/>
        <path class="cls-4" d="m1656.84,1567.17h-269.04c-20.56,0-39.08-8.77-52.02-22.76-11.67-12.62-18.79-29.5-18.79-48.05v-269.04c0-23.96,11.9-45.14,30.12-57.96,11.51-8.1,25.55-12.85,40.69-12.85h269.04c19.55,0,37.26,7.93,50.07,20.74,12.81,12.81,20.74,30.52,20.74,50.07v269.04c0,14.67-4.46,28.29-12.09,39.59-12.73,18.84-34.28,31.22-58.72,31.22Z"/>
        <path class="cls-4" d="m1134.52,1567.17h-269.04c-15.53,0-29.89-5-41.57-13.48-17.72-12.87-29.24-33.76-29.24-57.33v-269.04c0-16.8,5.85-32.23,15.62-44.37,12.98-16.12,32.88-26.44,55.19-26.44h269.04c14.67,0,28.29,4.46,39.59,12.09,18.84,12.73,31.22,34.28,31.22,58.72v269.04c0,20.65-8.84,39.23-22.93,52.17-12.6,11.57-29.42,18.64-47.88,18.64Z"/>
        <path class="cls-4" d="m612.2,1567.17h-269.04c-20.7,0-39.32-8.88-52.27-23.04-11.52-12.59-18.54-29.36-18.54-47.77v-269.04c0-17.79,6.56-34.06,17.4-46.5,12.98-14.9,32.1-24.31,53.41-24.31h269.04c23.87,0,44.98,11.81,57.8,29.9,8.19,11.55,13.01,25.67,13.01,40.91v269.04c0,25.62-13.6,48.06-33.98,60.49-10.73,6.55-23.34,10.32-36.83,10.32Z"/>
        <path class="cls-3" d="m441.29,1458.27c-11.31-4.83-20.26-11.79-26.83-20.88-6.57-9.09-9.96-19.82-10.15-32.19h43.5c.58,8.31,3.53,14.89,8.85,19.72,5.31,4.84,12.62,7.25,21.89,7.25s16.92-2.27,22.33-6.81c5.41-4.54,8.12-10.49,8.12-17.84,0-5.99-1.84-10.92-5.51-14.79-3.68-3.87-8.27-6.91-13.78-9.13-5.51-2.22-13.1-4.69-22.77-7.39-13.15-3.87-23.83-7.69-32.04-11.46-8.22-3.77-15.28-9.47-21.17-17.11-5.9-7.63-8.85-17.83-8.85-30.59,0-11.99,3-22.43,8.99-31.32,5.99-8.89,14.4-15.71,25.23-20.45,10.83-4.73,23.2-7.11,37.12-7.11,20.88,0,37.84,5.08,50.89,15.22,13.05,10.15,20.25,24.31,21.61,42.49h-44.66c-.39-6.96-3.34-12.71-8.85-17.26-5.51-4.54-12.81-6.81-21.89-6.81-7.93,0-14.26,2.03-19,6.09-4.74,4.06-7.1,9.96-7.1,17.69,0,5.42,1.79,9.91,5.36,13.49,3.58,3.58,8.02,6.48,13.34,8.7,5.32,2.22,12.81,4.79,22.48,7.69,13.14,3.87,23.88,7.73,32.19,11.6,8.31,3.87,15.46,9.67,21.46,17.4,5.99,7.73,8.99,17.88,8.99,30.45,0,10.83-2.8,20.88-8.41,30.16-5.61,9.28-13.82,16.68-24.65,22.19-10.83,5.51-23.69,8.26-38.57,8.26-14.12,0-26.83-2.41-38.13-7.25Z"/>
        <path class="cls-3" d="m1110.34,1260.63v202.42h-40.6v-131.66l-54.23,131.66h-30.74l-54.52-131.66v131.66h-40.6v-202.42h46.11l64.38,150.51,64.38-150.51h45.82Z"/>
        <path class="cls-3" d="m1509.27,1430.87h66.7v32.19h-107.3v-202.42h40.6v170.23Z"/>
      </g>
    </g>
  </g>
</svg>