<svg width="102" height="90" viewBox="0 0 102 90" fill="none" xmlns="http://www.w3.org/2000/svg">
<path d="M51.0003 9.21213C55.4185 9.21213 59.2348 6.39504 60.6057 2.25085C57.9902 2.97083 54.6564 3.40537 51.0003 3.40537C47.3445 3.40537 44.0107 2.97083 41.3955 2.25085C42.7657 6.39469 46.5817 9.21213 51.0003 9.21213Z" fill="white"/>
<path d="M101.873 14.3083C101.663 13.7195 101.227 13.2352 100.658 12.9715L81.2112 3.99424C77.0746 2.59295 72.8604 1.48606 68.6051 0.677033C68.4553 0.647696 68.3062 0.633545 68.1591 0.633545C67.1058 0.633545 66.1625 1.36077 65.9278 2.42728C64.3739 9.2681 58.3183 14.3897 50.9998 14.3897C43.6816 14.3897 37.6257 9.26844 36.0722 2.42728C35.8347 1.36077 34.8932 0.633545 33.8405 0.633545C33.6934 0.633545 33.5443 0.647696 33.3945 0.677033C29.1396 1.48606 24.9253 2.59295 20.7822 3.99424L1.34243 12.9712C0.770178 13.2349 0.33046 13.7191 0.13062 14.3079C-0.0761233 14.9037 -0.0388473 15.5467 0.252457 16.1086L8.69476 32.7695C9.08995 33.5603 9.8938 34.0348 10.7442 34.0348C10.9638 34.0348 11.1864 34.0031 11.4059 33.9372L20.7825 31.158V87.0615C20.7825 88.331 21.8183 89.3664 23.0912 89.3664H78.9094C80.1789 89.3664 81.2116 88.3306 81.2116 87.0615V31.1587L90.5948 33.9378C90.8143 34.0038 91.0366 34.0355 91.2557 34.0355C92.1044 34.0355 92.9052 33.5609 93.3059 32.7702L101.751 16.1093C102.036 15.547 102.076 14.904 101.873 14.3083Z" fill="white"/>
</svg>
