<svg width="16" height="18" viewBox="0 0 16 18" fill="none" xmlns="http://www.w3.org/2000/svg">
<path d="M5.5175 17.5417C4.94333 17.5417 4.47166 17.075 4.47166 16.5C4.47166 15.925 4.93416 15.4583 5.50916 15.4583H5.5175C6.0925 15.4583 6.55916 15.925 6.55916 16.5C6.55916 17.075 6.0925 17.5417 5.5175 17.5417ZM13.2258 16.5C13.2258 15.925 12.7592 15.4583 12.1842 15.4583H12.1758C11.6008 15.4583 11.1383 15.925 11.1383 16.5C11.1383 17.075 11.6092 17.5417 12.1842 17.5417C12.7592 17.5417 13.2258 17.075 13.2258 16.5ZM15.4666 5.96667L14.625 11.1167C14.4083 12.3 13.9167 13.1667 12.1667 13.1667H5.27498C4.44165 13.1667 3.74167 12.5583 3.625 11.7333L2.37419 3.02667C2.29919 2.50167 1.86584 2.125 1.34167 2.125H1.125C0.78 2.125 0.5 1.845 0.5 1.5C0.5 1.155 0.78 0.875 1.125 0.875H1.34167C2.49417 0.875 3.44836 1.70333 3.61086 2.845L3.78501 4H13.8333C14.8667 4 15.6583 4.94167 15.4666 5.96667ZM10.9225 7.03C10.6783 6.78583 10.2825 6.78583 10.0384 7.03L8.25747 8.81L7.58832 8.14083C7.34415 7.89666 6.94829 7.89666 6.70412 8.14083C6.45996 8.38499 6.45996 8.78083 6.70412 9.025L7.81496 10.1358C7.93246 10.2533 8.09082 10.3192 8.25665 10.3192C8.42249 10.3192 8.58168 10.2533 8.69834 10.1358L10.9208 7.91333C11.1667 7.67 11.1666 7.27417 10.9225 7.03Z" fill="white"/>
</svg>
